<svg width="74" height="69" viewBox="0 0 74 69" fill="none" xmlns="http://www.w3.org/2000/svg">
<g clip-path="url(#paint0_angular_1_1329_clip_path)" data-figma-skip-parse="true"><g transform="matrix(0.0615785 0.0532168 -0.0535758 0.0742644 36.7681 39.5829)"><foreignObject x="-654.564" y="-654.564" width="1309.13" height="1309.13"><div xmlns="http://www.w3.org/1999/xhtml" style="background:conic-gradient(from 90deg,rgba(0, 0, 0, 1) 0deg,rgba(193, 193, 193, 1) 360deg);height:100%;width:100%;opacity:1"></div></foreignObject></g></g><path d="M11.9738 25.3638C20.4877 10.7161 24.7447 3.39223 30.4345 1.18495C34.5071 -0.394984 39.0292 -0.394984 43.1018 1.18495C48.7916 3.39223 53.0486 10.7161 61.5625 25.3638C70.0764 40.0115 74.3333 47.3354 73.4129 53.3335C72.7541 57.6269 70.493 61.5168 67.0792 64.2302C62.3099 68.0211 53.796 68.0211 36.7681 68.0211C19.7403 68.0211 11.2264 68.0211 6.45707 64.2302C3.04324 61.5168 0.78222 57.6269 0.123382 53.3335C-0.79706 47.3354 3.45989 40.0115 11.9738 25.3638Z" data-figma-gradient-fill="{&#34;type&#34;:&#34;GRADIENT_ANGULAR&#34;,&#34;stops&#34;:[{&#34;color&#34;:{&#34;r&#34;:0.0012044270988553762,&#34;g&#34;:0.0012044270988553762,&#34;b&#34;:0.0012044270988553762,&#34;a&#34;:1.0},&#34;position&#34;:0.0},{&#34;color&#34;:{&#34;r&#34;:0.7590332031250,&#34;g&#34;:0.7590332031250,&#34;b&#34;:0.7590332031250,&#34;a&#34;:1.0},&#34;position&#34;:1.0}],&#34;stopsVar&#34;:[{&#34;color&#34;:{&#34;r&#34;:0.0012044270988553762,&#34;g&#34;:0.0012044270988553762,&#34;b&#34;:0.0012044270988553762,&#34;a&#34;:1.0},&#34;position&#34;:0.0},{&#34;color&#34;:{&#34;r&#34;:0.7590332031250,&#34;g&#34;:0.7590332031250,&#34;b&#34;:0.7590332031250,&#34;a&#34;:1.0},&#34;position&#34;:1.0}],&#34;transform&#34;:{&#34;m00&#34;:123.15701293945312,&#34;m01&#34;:-107.15158081054688,&#34;m02&#34;:28.765419006347656,&#34;m10&#34;:106.43361663818359,&#34;m11&#34;:148.52885437011719,&#34;m12&#34;:-87.898338317871094},&#34;opacity&#34;:1.0,&#34;blendMode&#34;:&#34;NORMAL&#34;,&#34;visible&#34;:true}"/>
<defs>
<clipPath id="paint0_angular_1_1329_clip_path"><path d="M11.9738 25.3638C20.4877 10.7161 24.7447 3.39223 30.4345 1.18495C34.5071 -0.394984 39.0292 -0.394984 43.1018 1.18495C48.7916 3.39223 53.0486 10.7161 61.5625 25.3638C70.0764 40.0115 74.3333 47.3354 73.4129 53.3335C72.7541 57.6269 70.493 61.5168 67.0792 64.2302C62.3099 68.0211 53.796 68.0211 36.7681 68.0211C19.7403 68.0211 11.2264 68.0211 6.45707 64.2302C3.04324 61.5168 0.78222 57.6269 0.123382 53.3335C-0.79706 47.3354 3.45989 40.0115 11.9738 25.3638Z"/></clipPath></defs>
</svg>
